PathFileType	4	(X/Y/Z)	/Users/niels/Desktop/University/Third Semester/Perception and Action/Exam/Gymnastics Motion Tracking/Code for Gym Tracking/Analyzed Data/Webcam_Backflip/id9_1_baseline_Sports2D/id9_1_baseline_Sports2D_px_person00.trc
DataRate	CameraRate	NumFrames	NumMarkers	Units	OrigDataRate	OrigDataStartFrame	OrigNumFrames
29.702970297029704	29.702970297029704	11	22	m	29.702970297029704	0	101
Frame#	Time	Hip			RHip			RKnee			RAnkle			RBigToe			RSmallToe			RHeel			LHip			LKnee			LAnkle			LBigToe			LSmallToe			LHeel			Neck			Head			Nose			RShoulder			RElbow			RWrist			LShoulder			LElbow			LWrist		
		X1	Y1	Z1	X2	Y2	Z2	X3	Y3	Z3	X4	Y4	Z4	X5	Y5	Z5	X6	Y6	Z6	X7	Y7	Z7	X8	Y8	Z8	X9	Y9	Z9	X10	Y10	Z10	X11	Y11	Z11	X12	Y12	Z12	X13	Y13	Z13	X14	Y14	Z14	X15	Y15	Z15	X16	Y16	Z16	X17	Y17	Z17	X18	Y18	Z18	X19	Y19	Z19	X20	Y20	Z20	X21	Y21	Z21	X22	Y22	Z22
0	0.0	1.0695487285685412	-0.5913696115795809	0.0	1.067214253508304	-0.5937092709426052	0.0	1.0859412401702142	-0.8276836775297527	0.0	1.0999978685792307	-1.0546348093535394	0.0	1.19827199880492	-1.0686566231921706	0.0	1.174884051052502	-1.0827138799328253	0.0	1.0836377707575375	-1.0780336147862841	0.0	1.0742462994740616	-0.5890342674358781	0.0	1.0368025535988576	-0.8089384008236942	0.0	0.9197663639856715	-0.9890738816797513	0.0	0.9829172267639091	-1.061593623507842	0.0	0.9758889151635939	-1.045210536758022	0.0	0.8870426096504833	-1.0054578404735324	0.0	1.0812319665263208	-0.2708340048718615	0.0	1.1163180240266677	-0.12577818206321692	0.0	1.137381287389365	-0.21234214941375212	0.0	1.0367763662378773	-0.31060988822805713	0.0	1.0017224056559435	-0.4767126773892955	0.0	0.98527875477489	-0.6427926896264761	0.0	1.083574097535128	-0.3129537584218842	0.0	1.062476102996175	-0.4533716106996746	0.0	1.139730793443802	-0.4930832681751838	0.0
1	0.033666666666666664	1.0673168748829134	-0.5892589017489909	0.0	1.0645507398206664	-0.59137892514339	0.0	1.087285145061216	-0.8224912990599088	0.0	1.0999331827972947	-1.0527219265511296	0.0	1.1957964047356449	-1.066103702496221	0.0	1.1749770145388598	-1.0802936823298712	0.0	1.0846658166111287	-1.0766839780018114	0.0	1.0741455730216747	-0.5874745980084863	0.0	1.0506632689818753	-0.803344468695292	0.0	0.9416823053147756	-0.9877117147274006	0.0	1.0066858941103394	-1.0528988816154385	0.0	0.9998737638030708	-1.0374060939949186	0.0	0.9100625586749683	-1.0071581109095011	0.0	1.0881336817762448	-0.2691887503645489	0.0	1.1251250442120992	-0.1251317554157178	0.0	1.1451404590539234	-0.21173083497349998	0.0	1.0489398473433693	-0.31264815102342447	0.0	1.0338731409744957	-0.48385720330776405	0.0	1.0508051274083483	-0.6469769577094948	0.0	1.0878471881962957	-0.3119928165793828	0.0	1.0867710611652914	-0.45722012316471794	0.0	1.1477035650501015	-0.5235601518549978	0.0
2	0.06733333333333333	1.0656591401434887	-0.5871769975358173	0.0	1.0628009435625545	-0.5891934850713284	0.0	1.0886584854984398	-0.8188073619878764	0.0	1.0998869801629467	-1.051583476430323	0.0	1.1939309967563092	-1.0645899135120556	0.0	1.1751297100748557	-1.0789544368382114	0.0	1.0851661531920496	-1.0760616014943318	0.0	1.0734890033095383	-0.5860170401386612	0.0	1.0632638105933068	-0.798936650826106	0.0	0.9641167319589675	-0.9875437432689658	0.0	1.031730165390961	-1.043933104659751	0.0	1.0247189585908678	-1.0295016970032131	0.0	0.9339549644341013	-1.0098133188182346	0.0	1.0946410304228578	-0.2677149509450343	0.0	1.1334423271570269	-0.12451144270650703	0.0	1.1521485575126218	-0.21110214480406728	0.0	1.060540853226126	-0.3141523729489935	0.0	1.0668910389631885	-0.48855419683259493	0.0	1.1154606469066244	-0.6466271282447899	0.0	1.0916982846173244	-0.31090865632379416	0.0	1.110019327517105	-0.45962002383814027	0.0	1.157212115782317	-0.5481641576340643	0.0
3	0.10099999999999999	1.0648625633960025	-0.5852753218322814	0.0	1.0622963341748843	-0.5873989817863416	0.0	1.089868551464641	-0.8175932549450208	0.0	1.099756289517884	-1.0514306191226397	0.0	1.1927773084643	-1.0646620820509962	0.0	1.1750235089917396	-1.0792405884081213	0.0	1.0847795554904978	-1.07637524349349	0.0	1.0723944549651159	-0.5848552785104895	0.0	1.073643870221514	-0.7965053491982652	0.0	0.9869919887873934	-0.9891984276731197	0.0	1.058388718456262	-1.0350666996647673	0.0	1.0505634297043864	-1.021907839032081	0.0	0.9585710141159407	-1.0138202724059713	0.0	1.1004624189371457	-0.2665141980850614	0.0	1.1408539206682193	-0.1239082258768308	0.0	1.1579089996808245	-0.21051184375258492	0.0	1.0708990168842092	-0.3148360674788325	0.0	1.100477551992424	-0.4887937110972912	0.0	1.1779543001088795	-0.6383059102884864	0.0	1.0951073978544499	-0.30974968791946766	0.0	1.1313690150832296	-0.459554277884543	0.0	1.1676040788924622	-0.563285750706027	0.0
4	0.13466666666666666	1.064869480515593	-0.583762734935884	0.0	1.0627734159948659	-0.5862597248238101	0.0	1.090651751787294	-0.8190329358474956	0.0	1.0993335617648063	-1.0518394650344975	0.0	1.1918145756485066	-1.0659674508762726	0.0	1.1740599250943415	-1.0807272133934955	0.0	1.0834233280873846	-1.0772028433184495	0.0	1.0715046769763183	-0.5842557003217519	0.0	1.0813436654657589	-0.7962702852262494	0.0	1.009602139680251	-0.992503252283197	0.0	1.0857782245245	-1.0272865659385344	0.0	1.0765621456921672	-1.015453356340806	0.0	0.9827212305647263	-1.018742631474778	0.0	1.1053822228514014	-0.26561778342252773	0.0	1.1470306138259052	-0.1232845594623864	0.0	1.1622900616045633	-0.21003029311296337	0.0	1.0793530303755738	-0.3147544192741545	0.0	1.1332681991006182	-0.48374417203871445	0.0	1.2365653413064432	-0.6205612067322188	0.0	1.0982967809775228	-0.3086684311232491	0.0	1.1497750157058741	-0.45666335001816877	0.0	1.175963433449532	-0.5682325246651043	0.0
5	0.16833333333333333	1.0655506236790564	-0.5826521857825901	0.0	1.0637686952103762	-0.5857035499412195	0.0	1.0909622705215225	-0.822262225101839	0.0	1.0983869124134193	-1.0520118267792642	0.0	1.1903361488242645	-1.0673872891887084	0.0	1.1718561864871433	-1.0821431358279578	0.0	1.0812307126771037	-1.0776871959086771	0.0	1.071503585565853	-0.5842458433814068	0.0	1.0864095815398138	-0.797725158748841	0.0	1.0308832428637686	-0.9966572351183463	0.0	1.111954197888137	-1.021586640328212	0.0	1.1010609843947539	-1.0108528588838805	0.0	1.00483354207313	-1.02357190829569	0.0	1.109166098998507	-0.2649905833788092	0.0	1.1517621725404315	-0.12268147269512882	0.0	1.165490675213216	-0.20973133154007978	0.0	1.0854689322096271	-0.31413724401476545	0.0	1.1635981405094742	-0.4738106351120898	0.0	1.2894440414215442	-0.5937501009395995	0.0	1.1013053499020533	-0.30771291333942513	0.0	1.1633899868995115	-0.4513256557481251	0.0	1.1792773827071177	-0.5652714123934056	0.0
6	0.20199999999999999	1.066888781762249	-0.5817051182876701	0.0	1.0649293934072024	-0.5852583160217284	0.0	1.09100737645272	-0.8256026304639897	0.0	1.0967690015570402	-1.0513021829264964	0.0	1.1880657772137577	-1.067919105373069	0.0	1.1686053024021752	-1.0823349113594953	0.0	1.078460253584071	-1.077093118126818	0.0	1.0727933764365476	-0.5844473713144175	0.0	1.089333264749096	-0.7998053759305646	0.0	1.0496077032664803	-1.0006688801697214	0.0	1.134509508203519	-1.0184217693233126	0.0	1.1222103606750664	-1.0083130279059298	0.0	1.0235163458460317	-1.0273566034490065	0.0	1.1116256032567025	-0.26452523467491956	0.0	1.155048775096525	-0.12225797386932846	0.0	1.167845069164145	-0.2097154903490165	0.0	1.0890954358743083	-0.3131828494594602	0.0	1.1899909238941053	-0.46005613723375505	0.0	1.334964250427681	-0.5595487529737893	0.0	1.1038722228279756	-0.30676193236634786	0.0	1.169492251745095	-0.4445263519412966	0.0	1.1765950986520892	-0.5590140507451354	0.0
7	0.23566666666666664	1.0688201654360465	-0.580673874105687	0.0	1.0661112722817832	-0.5844731512231306	0.0	1.0911091287573391	-0.8276294756364013	0.0	1.0946600481722624	-1.0497120939830347	0.0	1.1855071586050272	-1.0674437967097745	0.0	1.1650763792723424	-1.0811763290263072	0.0	1.075537667215393	-1.0753833923632634	0.0	1.075213342451846	-0.584341369256037	0.0	1.0909467316789545	-0.8015484724264398	0.0	1.0643133258269635	-1.0036911384721032	0.0	1.1512577272535855	-1.017602026865856	0.0	1.1383565490325893	-1.0075624177738574	0.0	1.0374836544932342	-1.0295687734984287	0.0	1.1127993618685015	-0.2641068814512882	0.0	1.1570992512973104	-0.12214687199880518	0.0	1.169549023458412	-0.2100722803591335	0.0	1.0904386598438907	-0.31201801536730717	0.0	1.2115929034615882	-0.44378335511743955	0.0	1.3721170453070388	-0.5206386471194148	0.0	1.1054012565238784	-0.3056236981849162	0.0	1.1653607187241122	-0.43760882242497007	0.0	1.1695664375230936	-0.5543063802047143	0.0
8	0.2693333333333333	1.0710915163996335	-0.5795042615931262	0.0	1.0672997363364	-0.5832555294435333	0.0	1.0916024891326905	-0.8279602401706098	0.0	1.0926949415181004	-1.0478137526867406	0.0	1.1837249601475164	-1.0665693031529748	0.0	1.1623395434535755	-1.0794474337668962	0.0	1.073082162533346	-1.0731518413436478	0.0	1.0780425028092069	-0.5836510427654477	0.0	1.0920495462602229	-0.8025761942600583	0.0	1.0734197591351846	-1.0051849389847685	0.0	1.1606117794289494	-1.018511824471006	0.0	1.148005896384503	-1.008146405944784	0.0	1.0454061975086042	-1.0301006865709699	0.0	1.1129633452482441	-0.2637085178728919	0.0	1.158156365614097	-0.1223367342310165	0.0	1.170599989433589	-0.21082516944412008	0.0	1.0901074281115029	-0.31073185341812964	0.0	1.228374728191255	-0.4264206440794571	0.0	1.4006368345276126	-0.4802361190076169	0.0	1.1050851645645077	-0.304199325914872	0.0	1.1504761655573796	-0.43205743664098206	0.0	1.1613988029535487	-0.5535618363731213	0.0
9	0.303	1.0733516520732846	-0.5783612035875004	0.0	1.0684531931206755	-0.5818829198285547	0.0	1.0927636438590576	-0.8271535689240423	0.0	1.0916652022950792	-1.0463274004179315	0.0	1.1837128388742275	-1.0660099409289765	0.0	1.1613537458176757	-1.078115337339836	0.0	1.0717772676879833	-1.0711712330307999	0.0	1.080483238629908	-0.5825318435043316	0.0	1.093004206581256	-0.8030404261192111	0.0	1.0758770162467957	-1.0051100903966592	0.0	1.1619327746183887	-1.0204479195688254	0.0	1.15016796003511	-1.009686244836839	0.0	1.0464604516062248	-1.0292295215142688	0.0	1.1124286900046854	-0.26340263796380736	0.0	1.1583270949823659	-0.12271637695752301	0.0	1.1709677301357568	-0.21189935734471813	0.0	1.0888751877884395	-0.3094368157910196	0.0	1.24085209912572	-0.40942310558640677	0.0	1.4208890182069023	-0.4414234785024201	0.0	1.1025053901840578	-0.3026318685906786	0.0	1.1285346167338945	-0.42920531057557604	0.0	1.1548730806032323	-0.5559604154170505	0.0
10	0.33666666666666667	1.075313001947117	-0.5775604058845203	0.0	1.0694939434738286	-0.580831118807756	0.0	1.0946951983628015	-0.8261893028784811	0.0	1.0920742139175097	-1.045898826785035	0.0	1.185866529468695	-1.066290562024789	0.0	1.1626067248082772	-1.0779386074504576	0.0	1.0721461379993065	-1.0702047468729843	0.0	1.082227382769494	-0.5814716255560824	0.0	1.093814177149158	-0.8032929787114123	0.0	1.0719280759135923	-1.0039577701462725	0.0	1.1559488139642455	-1.0228422486423727	0.0	1.1451097644594872	-1.011846126102823	0.0	1.0412484731413443	-1.0275659261433938	0.0	1.1113837334751657	-0.2632772212795743	0.0	1.157576876330463	-0.12315541100490202	0.0	1.1706814293989853	-0.213118662978435	0.0	1.0873326096460172	-0.3083220523332138	0.0	1.24974842939889	-0.394193756262408	0.0	1.4336668889833375	-0.4068449535601853	0.0	1.0981090129206188	-0.30127739180159235	0.0	1.1058529108019837	-0.429803420916296	0.0	1.1510354583117628	-0.5592850165848479	0.0
